<svg width="44" height="30" viewBox="0 0 44 30" fill="none" xmlns="http://www.w3.org/2000/svg">
<path d="M6.85791 13.992C8.08425 13.992 9.23155 14.3331 10.2129 14.9262C9.65792 14.0542 8.85325 13.3551 7.88603 12.9356L1.99282 10.3797C1.54523 10.1856 1.18562 9.82941 0.98442 9.38103L-4.42528e-07 7.18714C6.0623 5.76846 8.60376 6.94625 8.60376 6.94625C8.60376 6.94625 9.39799 7.99019 11.9658 9.43554C14.5337 10.881 17.3929 10.0512 17.3929 10.0512C17.3929 10.0512 20.0667 6.62498 21.5908 6.49114C23.115 6.3573 24.3024 6.54472 27.4791 6.97292C30.656 7.40124 30.9022 8.93184 30.9022 8.93184C30.9022 8.93184 31.1264 8.91896 31.4757 8.89762C31.4757 8.89762 30.5871 7.04065 30.212 6.76845C29.8001 6.46957 29.1378 6.32285 28.9193 6.29188C28.5058 6.2354 28.2159 5.85081 28.2716 5.4327C28.3275 5.01459 28.7081 4.72197 29.1214 4.77787C29.2398 4.79399 30.3006 4.95231 31.0929 5.52722C31.9941 6.18124 33.1082 8.79231 33.1082 8.79231C34.0075 8.73061 34.9264 8.65998 35.3151 8.60558C36.247 8.4751 36.41 7.5113 35.2648 6.86529C34.5195 6.44486 33.7859 6.02768 33.1826 5.68345C32.3728 5.22138 32.0596 4.2011 32.4687 3.35664L33.0119 2.23511C33.0119 2.23511 38.6882 4.97689 41.0068 8.65917C43.0072 11.8362 41.9735 13.5101 41.9735 13.5101L39.8367 13.1499L38.6647 14.1057C41.7017 14.6812 44 17.3757 44 20.6134C44 24.2704 41.068 27.2351 37.451 27.2351C33.834 27.2351 30.902 24.2705 30.902 20.6134C30.902 20.5536 30.9029 20.494 30.9044 20.4346L29.8189 21.3199L30.6742 24.4248L12.8914 23.1922C11.8969 25.5681 9.56982 27.2351 6.85768 27.2351C3.24083 27.2351 0.308679 24.2705 0.308679 20.6134C0.308679 16.9563 3.24072 13.9917 6.85768 13.9917L6.85791 13.992ZM37.4512 24.762C39.7135 24.762 41.5541 22.9011 41.5541 20.6136C41.5541 18.3262 39.7136 16.4653 37.4512 16.4653C37.1489 16.4653 36.8544 16.4995 36.5704 16.5626L37.0117 17.553C37.1553 17.5322 37.3019 17.5208 37.4511 17.5208C39.1405 17.5208 40.51 18.9055 40.51 20.6136C40.51 22.3218 39.1405 23.7065 37.4511 23.7065C35.7617 23.7065 34.3922 22.3218 34.3922 20.6136C34.3922 19.6095 34.8658 18.7175 35.5993 18.1524L35.1626 17.1723C34.069 17.9181 33.3484 19.1823 33.3484 20.6136C33.3484 22.901 35.1889 24.762 37.4512 24.762ZM6.85791 24.762C8.1642 24.762 9.32894 24.1409 10.0808 23.1761L6.85791 23.1578C5.46834 23.1578 4.3418 22.0188 4.3418 20.6138C4.3418 19.2088 5.46834 18.0697 6.85791 18.0697H10.0951C9.34374 17.0944 8.17246 16.4655 6.85791 16.4655C4.59565 16.4655 2.75505 18.3264 2.75505 20.6139C2.75505 22.9014 4.59553 24.7623 6.85791 24.7623V24.762Z" fill="black"/>
</svg>
