<svg width="36" height="36" viewBox="0 0 36 36" fill="none" xmlns="http://www.w3.org/2000/svg">
<path d="M16.1431 21.1814C16.3546 21.3929 16.6411 21.5114 16.9396 21.5114C17.2381 21.5114 17.5246 21.3929 17.7346 21.1814L23.5816 15.3329C24.0211 14.8934 24.0211 14.1809 23.5816 13.7414C23.1421 13.3019 22.4311 13.3019 21.9916 13.7414L16.9396 18.7934L14.8981 16.7489C14.4586 16.3094 13.7446 16.3094 13.3066 16.7489C12.8671 17.1869 12.8671 17.9009 13.3051 18.3404L16.1431 21.1814Z" fill="black"/>
<path fill-rule="evenodd" clip-rule="evenodd" d="M5.36751 19.0508C5.36751 29.0963 13.595 33.2663 18.0005 33.2663C22.406 33.2663 30.6335 29.0963 30.6335 19.0508C30.6335 16.2099 30.67 14.1449 30.6969 12.6235L30.6981 12.5563C30.767 8.75079 30.7814 7.95616 29.7995 6.97426C28.5515 5.72626 23.3855 2.73376 18.0005 2.73376C12.614 2.73376 7.44951 5.72626 6.20451 6.97426C5.2196 7.95617 5.23399 8.75231 5.30289 12.5639L5.30406 12.6301C5.33097 14.1501 5.36751 16.2138 5.36751 19.0508ZM7.79601 8.56576C8.52351 7.83526 13.1015 4.98376 18.0005 4.98376C22.8995 4.98376 27.479 7.83526 28.208 8.56576C28.496 8.85376 28.5065 9.33076 28.4495 12.5213C28.421 14.0603 28.3835 16.1528 28.3835 19.0508C28.3835 28.1813 20.7725 31.0163 18.0005 31.0163C15.2285 31.0163 7.61751 28.1813 7.61751 19.0508C7.61751 16.2002 7.58108 14.1264 7.55418 12.5952L7.55301 12.5288C7.49451 9.33226 7.50501 8.85376 7.79601 8.56576Z" fill="black"/>
</svg>
