<svg width="36" height="36" viewBox="0 0 36 36" fill="none" xmlns="http://www.w3.org/2000/svg">
<path d="M18 3C9.729 3 3 9.729 3 18V19.071V24V24.2145C3 25.7505 4.3455 27 6 27H7.5C8.3295 27 9 26.328 9 25.5V17.7855C9 16.9575 8.3295 16.2855 7.5 16.2855H6.138C6.972 10.4805 11.967 6 18 6C24.033 6 29.028 10.4805 29.862 16.2855H28.5C27.6705 16.2855 27 16.9575 27 17.7855V24V25.5V27C27 28.6545 25.6545 30 24 30H21V28.5H15V33H18H21H24C27.309 33 30 30.309 30 27C31.6545 27 33 25.7505 33 24.2145V24V19.071V18C33 9.729 26.271 3 18 3Z" fill="black"/>
</svg>
