<svg width="36" height="36" viewBox="0 0 36 36" fill="none" xmlns="http://www.w3.org/2000/svg">
<g clip-path="url(#clip0_133_2413)">
<path d="M24 24V4.5H1.5V24H24ZM24 24H34.5V16.5L30 12H24L24 24ZM12 27.75C12 29.8211 10.3211 31.5 8.25 31.5C6.17893 31.5 4.5 29.8211 4.5 27.75C4.5 25.6789 6.17893 24 8.25 24C10.3211 24 12 25.6789 12 27.75ZM31.5 27.75C31.5 29.8211 29.8211 31.5 27.75 31.5C25.6789 31.5 24 29.8211 24 27.75C24 25.6789 25.6789 24 27.75 24C29.8211 24 31.5 25.6789 31.5 27.75Z" stroke="black" stroke-width="2.5" stroke-linecap="round" stroke-linejoin="round"/>
</g>
<defs>
<clipPath id="clip0_133_2413">
<rect width="36" height="36" fill="white"/>
</clipPath>
</defs>
</svg>
